<svg viewBox="0 0 472 358" xmlns="http://www.w3.org/2000/svg" fill-rule="evenodd" clip-rule="evenodd" stroke-linecap="round" stroke-linejoin="round" stroke-miterlimit="1.414"><path fill="#0a1b4b" d="M0 57.319h471.132v300.235H0z"/><path fill="none" stroke-width="1.5" stroke="#fff" d="M15.703 72.414h439.726v269.9H15.703z"/><text x="210.658" y="166.309" font-family="HiraMinPro-W3" font-size="52" fill="#fff">水</text><text x="216.496" y="218.044" font-family="HiraMinPro-W3" font-size="40" fill="#fff">の</text><text x="177.521" y="277.653" font-family="HiraMinPro-W3" font-size="52" fill="#fff">輪</text><text x="245.954" y="277.671" font-family="HiraMinPro-W3" font-size="52" fill="#fff">郭</text><path d="M29.18 12.012c0-3.512-1.17-5.971-3.512-7.376-1.779-1.077-4.261-1.616-7.446-1.616l-3.161.141v18.193l2.67.07c4.308 0 7.352-.889 9.131-2.669 1.546-1.545 2.318-3.793 2.318-6.743zm6.744-.071c0 3.794-1.428 6.744-4.285 8.851-2.857 2.108-6.978 3.161-12.363 3.161l-4.215-.211v7.095c0 4.449.223 7.071.668 7.867.445.796 1.955 1.195 4.531 1.195 1.264 0 1.896.163 1.896.491v1.475l-.492.422H2.699c-.328 0-.492-.187-.492-.562v-1.194c0-.281.07-.445.211-.492.187-.094.632-.14 1.334-.14 2.388 0 3.793-.211 4.215-.633.421-.421.714-1.662.878-3.723.164-2.06.246-5.455.246-10.185V14.26c0-6.322-.316-9.776-.949-10.361-.632-.586-1.955-.879-3.968-.879-.937 0-1.499-.023-1.686-.07-.234-.047-.351-.21-.351-.491V1.335c0-.328.187-.492.562-.492H23.28c3.887 0 6.966 1.018 9.237 3.056 2.271 2.037 3.407 4.718 3.407 8.042zm40.373 14.471L68.5 7.867l-8.149 18.545h15.946zm16.507 15.243c0 .421-.281.632-.843.632H75.735c-.375-.328-.562-.562-.562-.703l.07-1.124c0-.093.117-.234.351-.421l.141-.14h1.756c2.06 0 3.09-.679 3.09-2.038 0-.796-.234-1.685-.702-2.669l-2.459-6.181H59.227l-2.88 7.094c-.281.75-.421 1.288-.421 1.616 0 1.499.96 2.248 2.88 2.248h1.615c.422 0 .633.234.633.702v1.054a.678.678 0 01-.211.492.554.554 0 01-.211.07H46.935c-.328 0-.492-.234-.492-.703V40.46c0-.374.234-.561.702-.561 1.124 0 1.967-.235 2.529-.703.89-.749 1.92-2.435 3.091-5.057L68.78 0h2.74l1.686 4.074c1.498 3.512 2.997 7.001 4.495 10.466.984 2.248 3.185 7.142 6.603 14.681 2.342 5.199 3.852 8.289 4.531 9.273.679.983 1.487 1.475 2.424 1.475 1.03 0 1.545.234 1.545.702v.984zm49.188-29.784c0 .141-.07.258-.211.351a.534.534 0 01-.21.071h-1.194c-.375 0-.609-.211-.703-.633l-.702-4.425c-.234-1.171-.574-1.978-1.019-2.423-.445-.445-1.206-.668-2.283-.668h-9.483v24.305c0 3.044.071 5.491.211 7.34.141 1.85.375 2.939.702 3.267.516.562 2.014.843 4.496.843 1.218 0 1.826.14 1.826.421v1.545l-.421.422h-19.809c-.328 0-.492-.187-.492-.562v-1.194c0-.281.094-.445.281-.492.188-.047.703-.07 1.546-.07 2.622 0 4.226-.48 4.812-1.44.585-.96.878-3.618.878-7.973V4.144h-9.483c-1.031 0-1.78.223-2.248.668-.468.445-.82 1.252-1.054 2.423l-.772 4.425c-.094.422-.305.633-.633.633h-1.194c-.281-.141-.421-.281-.421-.422V1.686c0-.562.234-.843.702-.843h36.176c.468 0 .702.281.702.843v10.185zm38.002-9.272c0 .281-.281.421-.843.421-2.95 0-4.718.375-5.303 1.124-.586.75-.878 3.044-.878 6.884v22.057c0 3.418.199 5.42.597 6.006.398.585 1.768.878 4.109.878h1.475c.515 0 .773.164.773.491v1.054c0 .515-.187.773-.562.773h-18.825c-.281 0-.422-.187-.422-.562V40.46c0-.327.234-.491.703-.491h1.123c2.389 0 3.829-.41 4.32-1.229.492-.82.738-3.22.738-7.2V8.008c0-2.342-.269-3.758-.808-4.25-.538-.492-2.142-.738-4.811-.738-.797 0-1.195-.187-1.195-.561V1.264c0-.281.188-.421.562-.421h18.685c.375 0 .562.164.562.492v1.264zm48.521 28.519c0 3.559-1.475 6.439-4.425 8.64-2.95 2.201-6.79 3.302-11.52 3.302-2.201 0-4.11-.141-5.725-.422-1.616-.281-3.665-.843-6.146-1.686v-9.764l.351-.562h1.264c.375 0 .691 1.101.948 3.302.258 2.201.832 3.629 1.721 4.285 2.576 1.639 5.245 2.458 8.008 2.458 2.669 0 4.87-.702 6.603-2.107 1.733-1.405 2.599-3.184 2.599-5.339 0-2.716-1.826-5.081-5.479-7.094a2251.054 2251.054 0 01-10.326-5.198c-3.699-2.389-5.549-5.386-5.549-8.992 0-3.371 1.499-6.204 4.496-8.499C208.332 1.147 212.078 0 216.574 0c1.498 0 3.172.14 5.022.421 1.85.281 3.384.633 4.601 1.054v9.202c0 .328-.234.492-.702.492h-.914c-.327 0-.538-.422-.632-1.265l-.14-.913c-.422-2.622-1.194-4.402-2.318-5.338-1.124-.937-3.068-1.405-5.831-1.405-2.435 0-4.46.737-6.076 2.212-1.615 1.476-2.423 3.29-2.423 5.444 0 2.623 1.826 4.964 5.479 7.025 3.419 1.779 6.86 3.559 10.326 5.338 3.699 2.435 5.549 5.386 5.549 8.851zm47.345 0c0 3.559-1.476 6.439-4.426 8.64-2.95 2.201-6.79 3.302-11.52 3.302-2.201 0-4.109-.141-5.725-.422-1.615-.281-3.664-.843-6.146-1.686v-9.764l.351-.562h1.265c.374 0 .69 1.101.948 3.302.257 2.201.831 3.629 1.721 4.285 2.575 1.639 5.245 2.458 8.008 2.458 2.669 0 4.87-.702 6.603-2.107 1.732-1.405 2.599-3.184 2.599-5.339 0-2.716-1.827-5.081-5.479-7.094a2153.21 2153.21 0 01-10.326-5.198c-3.7-2.389-5.55-5.386-5.55-8.992 0-3.371 1.499-6.204 4.496-8.499C255.676 1.147 259.422 0 263.918 0c1.499 0 3.173.14 5.022.421 1.85.281 3.384.633 4.601 1.054v9.202c0 .328-.234.492-.702.492h-.913c-.328 0-.539-.422-.632-1.265l-.141-.913c-.421-2.622-1.194-4.402-2.318-5.338-1.124-.937-3.067-1.405-5.83-1.405-2.435 0-4.461.737-6.076 2.212-1.616 1.476-2.424 3.29-2.424 5.444 0 2.623 1.827 4.964 5.479 7.025 3.419 1.779 6.861 3.559 10.326 5.338 3.7 2.435 5.55 5.386 5.55 8.851zm50.54 10.677c0 .328-.187.492-.562.492h-32.242c-.375 0-.562-.187-.562-.562V40.39c0-.328.234-.491.703-.491 2.763 0 4.413-.445 4.952-1.335.538-.89.808-3.793.808-8.71V9.483c0-2.716-.328-4.472-.984-5.268-.655-.796-2.154-1.195-4.495-1.195-.656 0-.984-.14-.984-.421V1.264c0-.281.234-.421.703-.421h30.907c.468 0 .702.211.702.632v7.516c0 .188-.046.375-.14.562 0 .047-.047.117-.141.211h-1.405c-.327 0-.491-.234-.491-.703V7.867c0-1.592-.281-2.716-.843-3.371-.562-.656-1.499-.984-2.81-.984h-13.838a90.43 90.43 0 01-.07 3.688c-.047 1.147-.094 2.26-.141 3.337v8.921h10.467c2.247 0 3.687-.293 4.32-.878.632-.586.948-1.909.948-3.969 0-.562.023-.89.07-.984.094-.14.281-.21.562-.21h1.124c.375 0 .562.257.562.772v13.206c0 .375-.164.562-.492.562h-1.334c-.281 0-.422-.234-.422-.702 0-2.061-.292-3.431-.878-4.11-.585-.679-1.791-1.018-3.617-1.018h-11.31v8.991l.211 8.5h8.991c4.449 0 7.153-.34 8.113-1.019.96-.679 1.44-2.517 1.44-5.514 0-.609.141-.913.422-.913h1.335c.281 0 .421.187.421.562v9.061zm44.886-30.767c0-3.09-1.03-5.245-3.091-6.462-1.639-.984-4.121-1.475-7.446-1.475l-3.793.07v16.578c4.215 0 7.329-.399 9.343-1.195 3.324-1.311 4.987-3.816 4.987-7.516zm13.065 30.627c0 .421-.234.632-.702.632h-8.64c-.328 0-.703-.468-1.124-1.405-.656-1.592-1.944-4.027-3.864-7.305a191.317 191.317 0 00-6.532-10.326l-.984-1.405-5.549.211v9.202c0 4.729.258 7.399.773 8.007.515.422 2.013.633 4.495.633.843 0 1.265.14 1.265.421v1.475c0 .328-.188.492-.562.492h-17.28c-.328 0-.492-.164-.492-.492v-1.194c0-.468.398-.702 1.194-.702 1.031 0 1.862-.036 2.494-.106.632-.07 1.077-.234 1.335-.492.257-.257.456-1.205.597-2.844.14-1.639.21-3.887.21-6.744v-17.42c0-4.636-.164-7.341-.491-8.113-.328-.773-1.546-1.16-3.653-1.16-.796 0-1.264-.023-1.405-.07-.187-.093-.281-.304-.281-.632V1.124c.234-.187.422-.281.562-.281h19.739c3.746 0 6.79.913 9.131 2.739 2.342 1.827 3.513 4.215 3.513 7.165 0 4.871-3.161 8.266-9.483 10.186l1.264 2.037c2.857 4.402 5.257 7.984 7.2 10.747 1.943 2.763 3.29 4.543 4.039 5.339.234.187.831.433 1.791.737.96.305 1.44.55 1.44.738v1.124zm33.928-39.056c0 .281-.281.421-.843.421-2.95 0-4.718.375-5.303 1.124-.586.75-.878 3.044-.878 6.884v22.057c0 3.418.199 5.42.597 6.006.398.585 1.768.878 4.109.878h1.475c.515 0 .773.164.773.491v1.054c0 .515-.188.773-.562.773h-18.826c-.281 0-.421-.187-.421-.562V40.46c0-.327.234-.491.702-.491h1.124c2.389 0 3.829-.41 4.32-1.229.492-.82.738-3.22.738-7.2V8.008c0-2.342-.269-3.758-.808-4.25-.538-.492-2.142-.738-4.812-.738-.796 0-1.194-.187-1.194-.561V1.264c0-.281.188-.421.562-.421h18.685c.375 0 .562.164.562.492v1.264zm50.997 39.196c0 .328-.187.492-.562.492h-32.242c-.374 0-.562-.187-.562-.562V40.39c0-.328.234-.491.703-.491 2.763 0 4.413-.445 4.952-1.335.538-.89.808-3.793.808-8.71V9.483c0-2.716-.328-4.472-.984-5.268-.655-.796-2.154-1.195-4.495-1.195-.656 0-.984-.14-.984-.421V1.264c0-.281.234-.421.703-.421h30.907c.468 0 .702.211.702.632v7.516c0 .188-.046.375-.14.562 0 .047-.047.117-.141.211h-1.404c-.328 0-.492-.234-.492-.703V7.867c0-1.592-.281-2.716-.843-3.371-.562-.656-1.499-.984-2.81-.984h-13.838a90.43 90.43 0 01-.07 3.688c-.047 1.147-.094 2.26-.141 3.337v8.921h10.467c2.248 0 3.688-.293 4.32-.878.632-.586.948-1.909.948-3.969 0-.562.023-.89.07-.984.094-.14.281-.21.562-.21h1.124c.375 0 .562.257.562.772v13.206c0 .375-.164.562-.492.562h-1.334c-.281 0-.422-.234-.422-.702 0-2.061-.292-3.431-.878-4.11-.585-.679-1.791-1.018-3.617-1.018h-11.31v8.991l.211 8.5h8.991c4.449 0 7.154-.34 8.114-1.019.96-.679 1.44-2.517 1.44-5.514 0-.609.14-.913.421-.913h1.335c.281 0 .421.187.421.562v9.061z" fill="#070d56" fill-rule="nonzero"/></svg>